<?xml version="1.0" encoding="UTF-8"?>
<svg width="281px" height="258px" viewBox="0 0 281 258" version="1.1" xmlns="http://www.w3.org/2000/svg" xmlns:xlink="http://www.w3.org/1999/xlink">
    <!-- Generator: sketchtool 62 (101010) - https://sketch.com -->
    <title>78D06F9A-6435-4C22-A2CC-63C8213F0492@1x</title>
    <desc>Created with sketchtool.</desc>
    <defs>
        <linearGradient x1="-0.0824733791%" y1="49.9686052%" x2="100.170206%" y2="49.9686052%" id="linearGradient-1">
            <stop stop-color="#0049E2" offset="0%"></stop>
            <stop stop-color="#0049BE" offset="100%"></stop>
        </linearGradient>
        <linearGradient x1="0.0795556093%" y1="49.9859585%" x2="100.036099%" y2="49.9859585%" id="linearGradient-2">
            <stop stop-color="#0049E2" offset="0%"></stop>
            <stop stop-color="#0049BE" offset="100%"></stop>
        </linearGradient>
        <linearGradient x1="-0.0131891726%" y1="50.0283677%" x2="100.065108%" y2="50.0283677%" id="linearGradient-3">
            <stop stop-color="#0049E2" offset="0%"></stop>
            <stop stop-color="#0049BE" offset="100%"></stop>
        </linearGradient>
    </defs>
    <g id="Page-1" stroke="none" stroke-width="1" fill="none" fill-rule="evenodd">
        <g id="onboard-1" transform="translate(-39.000000, -64.000000)">
            <g id="1" transform="translate(39.000000, 64.000000)">
                <g id="Group" transform="translate(0.000000, 6.000000)" fill="#E1E2FE" fill-rule="nonzero">
                    <g opacity="0.41" transform="translate(15.416190, 16.285714)" id="Path">
                        <g>
                            <path d="M265.249143,146.933333 C265.521194,142.409524 265.43051,137.885714 264.886409,133.452381 C262.528639,112.461905 251.737306,92.647619 235.8677,78.7142857 C230.245325,73.7380952 223.716115,69.3047619 220.088776,62.7 C213.9223,51.6619048 214.375718,38.9047619 206.667623,27.9571429 C198.959528,17.0095238 187.714778,8.5047619 175.019093,4.07142857 C137.204087,-9.04761905 84.2449415,12.3047619 89.0511653,57.7238095 C89.0511653,57.9047619 89.0511653,58.0857143 89.1418488,58.447619 C89.7766331,67.8571429 82.3405887,75.8190476 72.9095081,76.0904762 C37.996373,76.9047619 7.98014516,103.77619 1.54161895,137.795238 C-2.62982056,159.690476 4.17143952,183.666667 20.2224133,199.047619 C32.192631,210.628571 48.2436048,216.961905 64.2945786,221.304762 C96.4872097,230.080952 130.402827,231.890476 163.592976,228.542857 C194.697405,225.37619 227.434137,216.509524 247.565867,192.62381 C258.175833,179.866667 264.251625,163.490476 265.249143,146.933333 Z"></path>
                        </g>
                    </g>
                    <g opacity="0.31" transform="translate(106.099657, 0.000000)" id="Oval">
                        <ellipse transform="translate(9.540254, 10.143467) rotate(-80.822143) translate(-9.540254, -10.143467) " cx="9.54025444" cy="10.1434667" rx="8.14334892" ry="8.16105478"></ellipse>
                    </g>
                    <g opacity="0.31" transform="translate(220.360827, 0.904762)" id="Oval">
                        <ellipse cx="4.98759073" cy="4.25238095" rx="4.17143952" ry="4.16190476"></ellipse>
                    </g>
                    <g opacity="0.31" transform="translate(69.826270, 20.809524)" id="Oval">
                        <ellipse transform="translate(7.613838, 7.470963) rotate(-75.995717) translate(-7.613838, -7.470963) " cx="7.61383834" cy="7.47096285" rx="5.61040651" ry="5.62175281"></ellipse>
                    </g>
                    <g opacity="0.31" transform="translate(0.000000, 218.047619)" id="Oval">
                        <ellipse cx="12.786369" cy="13.3" rx="12.786369" ry="12.7571429"></ellipse>
                    </g>
                </g>
                <g id="Group" transform="translate(59.000000, 18.000000)" stroke="#445EEA" stroke-width="2">
                    <path d="M0.817105263,47.4461538 C0.817105263,47.4461538 1.45263158,47.4461538 2.63289474,47.5384615" id="Path"></path>
                    <path d="M6.17368421,47.6307692 C26.2381579,47.9076923 97.8710526,45.6923077 135.276316,3.13846154" id="Path" stroke-dasharray="3.9092,3.9092"></path>
                    <path d="M136.456579,1.75384615 C136.819737,1.29230769 137.273684,0.830769231 137.636842,0.369230769" id="Path"></path>
                </g>
                <g id="Group" transform="translate(113.000000, 10.000000)" fill="#91A8F6" fill-rule="nonzero">
                    <path d="M40.4808511,0.533333333 L21,0.533333333 C20.5531915,0.533333333 20.106383,0.888888889 20.106383,1.42222222 C20.106383,1.86666667 20.4638298,2.31111111 21,2.31111111 L40.4808511,2.31111111 C40.9276596,2.31111111 41.3744681,1.95555556 41.3744681,1.42222222 C41.3744681,0.888888889 40.9276596,0.533333333 40.4808511,0.533333333 Z" id="Path"></path>
                    <path d="M16.9787234,0.533333333 L9.02553191,0.533333333 C8.5787234,0.533333333 8.13191489,0.888888889 8.13191489,1.42222222 C8.13191489,1.86666667 8.4893617,2.31111111 9.02553191,2.31111111 L16.9787234,2.31111111 C17.4255319,2.31111111 17.8723404,1.95555556 17.8723404,1.42222222 C17.8723404,0.888888889 17.5148936,0.533333333 16.9787234,0.533333333 Z" id="Path"></path>
                    <path d="M32.6170213,5.42222222 L13.1361702,5.42222222 C12.6893617,5.42222222 12.2425532,5.77777778 12.2425532,6.31111111 C12.2425532,6.75555556 12.6,7.2 13.1361702,7.2 L32.6170213,7.2 C33.0638298,7.2 33.5106383,6.84444444 33.5106383,6.31111111 C33.5106383,5.86666667 33.0638298,5.42222222 32.6170213,5.42222222 Z" id="Path"></path>
                    <path d="M9.11489362,5.42222222 L1.16170213,5.42222222 C0.714893617,5.42222222 0.268085106,5.77777778 0.268085106,6.31111111 C0.268085106,6.75555556 0.625531915,7.2 1.16170213,7.2 L9.11489362,7.2 C9.56170213,7.2 10.0085106,6.84444444 10.0085106,6.31111111 C10.0085106,5.86666667 9.65106383,5.42222222 9.11489362,5.42222222 Z" id="Path"></path>
                </g>
                <path d="M46.5741935,126 L27.4258065,126 C24.9870968,126 23,123.965318 23,121.468208 C23,118.971098 24.8967742,117.028902 27.3354839,116.936416 C27.4258065,113.144509 30.4967742,110 34.2,110 C36.5483871,110 38.716129,111.202312 39.9806452,113.236994 C42.6,112.867052 44.8580645,114.531792 45.4903226,116.936416 L46.5741935,116.936416 C49.0129032,116.936416 51,118.971098 51,121.468208 C51,123.965318 49.0129032,126 46.5741935,126 Z M27.4258065,118.231214 C25.7096774,118.231214 24.2645161,119.710983 24.2645161,121.468208 C24.2645161,123.225434 25.7096774,124.705202 27.4258065,124.705202 L46.5741935,124.705202 C48.2903226,124.705202 49.7354839,123.225434 49.7354839,121.468208 C49.7354839,119.710983 48.2903226,118.231214 46.5741935,118.231214 L44.4064516,118.231214 L44.316129,117.676301 C43.9548387,115.549133 41.9677419,114.069364 39.8,114.531792 L39.3483871,114.624277 L39.0774194,114.16185 C38.083871,112.312139 36.1870968,111.202312 34.2,111.202312 C31.1290323,111.202312 28.6,113.791908 28.6,116.936416 C28.6,117.121387 28.6,117.306358 28.6,117.398844 L28.6903226,118.138728 L27.4258065,118.138728 L27.4258065,118.231214 Z" id="Shape" fill="#91A8F6" fill-rule="nonzero"></path>
                <path d="M246.574194,51 L227.425806,51 C224.987097,51 223,48.9653179 223,46.4682081 C223,43.9710983 224.896774,42.0289017 227.335484,41.9364162 C227.425806,38.1445087 230.496774,35 234.2,35 C236.548387,35 238.716129,36.2023121 239.980645,38.2369942 C242.6,37.867052 244.858065,39.5317919 245.490323,41.9364162 L246.574194,41.9364162 C249.012903,41.9364162 251,43.9710983 251,46.4682081 C251,48.9653179 249.103226,51 246.574194,51 Z M227.425806,43.2312139 C225.709677,43.2312139 224.264516,44.7109827 224.264516,46.4682081 C224.264516,48.2254335 225.709677,49.7052023 227.425806,49.7052023 L246.574194,49.7052023 C248.290323,49.7052023 249.735484,48.2254335 249.735484,46.4682081 C249.735484,44.7109827 248.290323,43.2312139 246.574194,43.2312139 L244.406452,43.2312139 L244.316129,42.6763006 C243.954839,40.5491329 241.967742,39.0693642 239.8,39.5317919 L239.348387,39.6242775 L239.077419,39.1618497 C238.083871,37.3121387 236.187097,36.2023121 234.2,36.2023121 C231.129032,36.2023121 228.6,38.7919075 228.6,41.9364162 C228.6,42.1213873 228.6,42.3063584 228.6,42.3988439 L228.690323,43.1387283 L227.425806,43.1387283 L227.425806,43.2312139 Z" id="Shape" fill="#91A8F6" fill-rule="nonzero"></path>
                <path d="M124.574194,74 L105.425806,74 C102.987097,74 101,71.9653179 101,69.4682081 C101,66.9710983 102.896774,65.0289017 105.335484,64.9364162 C105.425806,61.1445087 108.496774,58 112.2,58 C114.548387,58 116.716129,59.2023121 117.980645,61.2369942 C120.6,60.867052 122.858065,62.5317919 123.490323,64.9364162 L124.574194,64.9364162 C127.012903,64.9364162 129,66.9710983 129,69.4682081 C129,71.9653179 127.103226,74 124.574194,74 Z M105.425806,66.2312139 C103.709677,66.2312139 102.264516,67.7109827 102.264516,69.4682081 C102.264516,71.2254335 103.709677,72.7052023 105.425806,72.7052023 L124.574194,72.7052023 C126.290323,72.7052023 127.735484,71.2254335 127.735484,69.4682081 C127.735484,67.7109827 126.290323,66.2312139 124.574194,66.2312139 L122.406452,66.2312139 L122.316129,65.6763006 C121.954839,63.5491329 119.967742,62.0693642 117.8,62.5317919 L117.348387,62.6242775 L117.077419,62.1618497 C116.083871,60.3121387 114.187097,59.2023121 112.2,59.2023121 C109.129032,59.2023121 106.6,61.7919075 106.6,64.9364162 C106.6,65.1213873 106.6,65.3063584 106.6,65.3988439 L106.690323,66.1387283 L105.425806,66.1387283 L105.425806,66.2312139 Z" id="Shape" fill="#91A8F6" fill-rule="nonzero"></path>
                <polygon id="Path" fill="#0049E2" fill-rule="nonzero" points="211 94.3032258 215.433333 99 249 85"></polygon>
                <polygon id="Path" fill="#91A8F6" fill-rule="nonzero" points="212.485876 78 209.231638 83.1806167 211.40113 88.1762115 206.429379 89.0088106 202 99 250 84.1057269"></polygon>
                <polygon id="Path" fill="#0049E2" fill-rule="nonzero" points="211.174216 88 209 83 235 84.2037037"></polygon>
                <path d="M115.543589,56.8604056 C112.910034,57.1326441 110.912164,59.4012975 111.002976,62.0329355 L111.002976,62.0329355 L113.908968,120.291956 C113.999781,128.368362 128.89299,131 137.610966,130.818508 L139.245587,131 C148.054375,130.818508 143.604575,128.277616 143.695387,120.564194 C143.877011,107.678243 143.877011,113.123011 143.877011,113.213757 C143.877011,113.213757 154.956106,111.398834 157.226412,96.9701984 C158.406972,89.8012536 158.043723,78.0042557 157.408037,68.3851651 C156.863163,59.764282 151.141992,49.146984 142.424015,50.0544453 L115.543589,56.8604056 Z" id="Path" fill="#FFBE9D" fill-rule="nonzero"></path>
                <path d="M144,113.376377 C144,113.376377 134.455399,114.036634 125,108 C125,108 129.638498,118.281142 143.821596,116.866306 L144,113.376377 Z" id="Path" fill="#EB996E" fill-rule="nonzero"></path>
                <path d="M113.521607,80.4328398 C112.373463,79.7080303 110.746926,79.9798339 109.503103,80.6140421 C106.728422,82.1542622 105.293242,85.6877084 106.345707,88.4963451 C107.398173,91.3955829 110.746926,93.3888089 114,92.935803" id="Path" fill="#FFBE9D" fill-rule="nonzero"></path>
                <path d="M111.690581,87.5877233 C111.690581,87.495444 111.093225,87.6800026 110.29675,87.4031647 C109.500275,87.1263267 108.902919,86.1112543 108.902919,84.9116232 C108.902919,83.7119921 109.798953,82.789199 110.595428,82.6046403 C111.391903,82.3278024 111.989259,82.4200817 111.989259,82.3278024 C112.088819,82.2355231 111.491462,81.8664058 110.396309,82.0509645 C109.898513,82.1432438 109.301156,82.4200817 108.80336,82.9737576 C108.305563,83.4351542 108.006885,84.1733887 108.006885,84.9116232 C107.907325,86.3880922 108.902919,87.7722819 109.998072,87.9568406 C111.192784,88.1413992 111.79014,87.6800026 111.690581,87.5877233 Z" id="Path" fill="#EB996E" fill-rule="nonzero"></path>
                <path d="M136.127527,138.965356 C139.328474,129.107443 147.102202,119.157399 155.607576,122.750471 C165.118961,126.804192 167.771174,131.871344 172.984145,139.794527 C178.197116,147.71771 181.398063,156.746453 184.507554,165.683066 C185.696478,169.184007 186.885401,173.237729 185.056288,176.37015 C183.410087,179.134051 180.117684,180.239611 177.008193,180.976652 C169.051553,183.095642 161.094914,184.938243 153.046818,186.412324 C149.845871,187.057234 146.279102,187.517884 143.443977,185.859543 C139.785752,183.740553 138.688285,179.134051 137.95664,174.988199 C135.304426,160.523784 132.652213,145.967239 130,131.502824" id="Path" fill="url(#linearGradient-1)" fill-rule="nonzero"></path>
                <path d="M144.049191,118.545219 L157.160396,123.633925 C163.442848,128.540891 165.263848,137.082648 164.990698,145.079186 L171,247.580268 C171,247.580268 129.572237,271.024665 87.1429231,247.580268 C86.0503228,246.94418 98.4331267,211.050627 98.4331267,211.050627 L86.869773,167.342276 C85.9592727,161.072263 85.4129726,147.987019 87.0518731,141.807875 C91.2401744,125.905669 102.530378,121.180441 114.093732,118 C114.093732,118 125.657085,127.723064 136.947289,125.633059 C137.129389,125.633059 143.320791,125.26958 144.049191,118.545219 Z" id="Path" fill="url(#linearGradient-2)" fill-rule="nonzero"></path>
                <g id="Group" opacity="0.2" transform="translate(102.000000, 188.000000)" fill="#000000" fill-rule="nonzero">
                    <g id="Path">
                        <path d="M59.1940299,3.23584906 C52.119403,13.7754717 45.0447761,24.4075472 37.9701493,34.9471698 C35.1940299,39.1075472 32.3283582,43.3603774 28.2089552,46.0415094 C22.2089552,50.0169811 14.0597015,49.9245283 8.14925373,45.8566038 C2.23880597,41.7886792 -0.985074627,34.0226415 0.268656716,26.8113208 C0.447761194,25.9792453 0.626865672,25.054717 1.25373134,24.4075472 C2.14925373,23.390566 3.67164179,23.2981132 4.8358209,23.6679245 C6.08955224,24.0377358 7.1641791,24.8698113 8.32835821,25.4245283 C14.9552239,29.0301887 23.4626866,27.0886792 29.7313433,22.7433962 C36,18.3981132 40.5671642,12.0188679 45.3134328,6.00943396 C47.1044776,3.79056604 48.9850746,1.47924528 51.6716418,0.554716981 C54.2686567,-0.462264151 57.761194,0.369811321 58.8358209,3.0509434"></path>
                    </g>
                </g>
                <path d="M147,119.322274 C146.910256,119.228674 146.102564,121.662285 143.230769,124.189497 C141.794872,125.406303 139.910256,126.623109 137.576923,127.371912 C135.24359,128.120716 132.551282,128.495117 129.679487,128.214316 C126.897436,127.839914 124.294872,126.90391 122.051282,125.780705 C119.807692,124.657499 118.012821,123.347093 116.487179,122.130287 C115.051282,120.913482 113.884615,119.883877 113.166667,119.135073 C112.448718,118.38627 112,117.918267 112,118.011868 C112,118.011868 112.358974,118.47987 113.076923,119.322274 C113.794872,120.164678 114.871795,121.287883 116.307692,122.504689 C117.74359,123.721495 119.628205,125.125502 121.871795,126.342307 C124.115385,127.559113 126.717949,128.495117 129.679487,128.869519 C132.551282,129.243921 135.423077,128.775919 137.75641,127.933515 C140.179487,127.091111 142.153846,125.874305 143.5,124.470298 C144.935897,123.159892 145.833333,121.849486 146.371795,120.819881 C146.641026,120.351879 146.820513,119.977477 146.910256,119.696676 C147,119.509475 147,119.415875 147,119.322274 Z" id="Path" fill="#263238" fill-rule="nonzero"></path>
                <path d="M94.1368119,129 C89.6946929,131.242092 87.9722385,133.573868 85.4338847,136.892164 C79.8132443,144.246226 78.6347229,150.613767 79.0880003,159.761502 C79.5412778,168.998921 82.2609425,177.877606 84.8899518,186.75629 C85.9778177,190.253953 87.3376501,194.110352 90.6919033,195.455607 C93.592879,196.711178 96.9471322,195.545291 99.8481079,194.469086 C107.463169,191.509525 114.89692,188.370596 122.240014,184.872933 C125.14099,183.437994 126.319511,183.168943 127.588688,180.209381 C129.311143,176.442667 125.14099,172.496585 123.962469,168.550503 C118.976417,151.331236 115.259541,134.829439 106.64727,131.242092" id="Path" fill="url(#linearGradient-3)" fill-rule="nonzero"></path>
                <g id="Group" transform="translate(96.000000, 144.000000)" fill-rule="nonzero">
                    <path d="M28.3318966,40.7888123 L30.2327586,47.9854454 L67.887931,20.7281973 L79.3836207,4.44581482 C80.9224138,2.28682488 83.2758621,0.757540332 85.9008621,0.217792845 L85.9008621,0.217792845 C88.7068966,-0.321954641 91.6034483,0.30775076 93.8663793,1.92699322 L104.547414,9.48345803 C104.547414,9.48345803 104.275862,15.2407646 101.650862,14.0713117 C99.0258621,12.9018588 93.8663793,10.0232055 93.8663793,10.0232055 L92.4181034,23.7867664 L86.0818966,28.3746201 L79.7456897,33.2323474 L37.2931034,75.1527356 C28.1508621,84.148527 12.762931,81.7196633 6.96982759,70.2050503 L0.63362069,52.4833411 L28.3318966,40.7888123 Z" id="Path" fill="#FFBE9D"></path>
                    <path d="M31.137931,46.9959083 C31.137931,46.9059504 30.4137931,47.1758242 29.5991379,47.9854454 C28.7844828,48.7950666 27.8793103,50.1444354 27.4267241,51.8536357 C26.9741379,53.5628361 26.9741379,55.1820786 26.9741379,56.2615735 C27.0646552,57.4310264 27.1551724,58.0607318 27.1551724,58.0607318 C27.2456897,58.0607318 27.2456897,57.3410685 27.3362069,56.2615735 C27.4267241,55.1820786 27.4267241,53.652794 27.8793103,52.0335516 C28.3318966,50.4143091 29.0560345,49.0649404 29.7801724,48.2553191 C30.5948276,47.35574 31.137931,46.9959083 31.137931,46.9959083 Z" id="Path" fill="#EB996E"></path>
                    <path d="M93.8663793,10.8328267 C93.9568966,10.8328267 93.7758621,10.3830372 93.3232759,9.75333177 C92.8706897,9.12362637 92.1465517,8.22404723 90.9698276,7.86421557 C89.7025862,7.414426 88.5258621,7.86421557 87.8922414,8.40396306 C87.2586207,9.03366846 87.2586207,9.57341595 87.3491379,9.57341595 C87.4396552,9.57341595 87.5301724,9.12362637 88.1637931,8.76379472 C88.7068966,8.40396306 89.7931034,8.0441314 90.7887931,8.40396306 C91.7844828,8.76379472 92.5086207,9.48345803 93.0517241,10.0232055 C93.5043103,10.562953 93.8663793,10.9227847 93.8663793,10.8328267 Z" id="Path" fill="#EB996E"></path>
                    <path d="M87.1681034,14.5211012 C87.2586207,14.6110592 87.5301724,14.3411854 88.0732759,14.0713117 C88.6163793,13.8014379 89.3405172,13.5315642 90.2456897,13.5315642 C91.1508621,13.5315642 91.875,13.8014379 92.4181034,14.1612696 C92.9612069,14.4311433 93.2327586,14.7010171 93.3232759,14.6110592 C93.4137931,14.6110592 93.2327586,14.1612696 92.6896552,13.8014379 C92.237069,13.3516484 91.3318966,12.9918167 90.3362069,12.9918167 C89.3405172,12.9918167 88.4353448,13.4416063 87.9827586,13.8014379 C87.2586207,14.0713117 87.0775862,14.4311433 87.1681034,14.5211012 Z" id="Path" fill="#EB996E"></path>
                </g>
                <path d="M124.292464,185 C124.292464,185 124.560383,185 125.006914,184.817057 C125.453446,184.634115 126.07859,184.26823 126.703734,183.536459 C127.239571,182.804689 127.775409,181.707033 127.954022,180.334964 C128.132634,178.962895 127.775409,177.407883 127.150265,175.852871 C126.525121,174.297859 125.632058,172.742847 124.828302,171.004892 C124.024545,169.266938 123.310095,167.254569 122.684951,165.242201 C121.434662,161.034521 120.452293,156.369485 119.202005,151.430035 C117.951717,146.582057 116.254898,141.917021 113.754321,138.258169 C111.343051,134.507846 108.217331,131.94665 105.270224,130.57458 C102.323116,129.11104 99.5546209,128.928097 97.7684951,129.019568 C95.9823692,129.202511 95,129.568396 95,129.568396 C95,129.659867 95.9823692,129.293982 97.7684951,129.293982 C99.5546209,129.202511 102.23381,129.568396 105.091611,131.031937 C107.949412,132.495478 111.075133,134.965202 113.397096,138.624054 C115.808366,142.282906 117.415879,146.764999 118.666167,151.612978 C119.916456,156.460956 120.898825,161.217464 122.149113,165.425143 C122.774257,167.528983 123.488707,169.44988 124.38177,171.279306 C125.185527,173.017261 126.07859,174.572273 126.703734,176.127285 C127.328878,177.590825 127.686103,179.145837 127.50749,180.426435 C127.418184,181.707033 126.971653,182.804689 126.435815,183.536459 C125.899977,184.26823 125.274833,184.634115 124.917608,184.908529 C124.471076,184.908529 124.292464,184.908529 124.292464,185 Z" id="Path" fill="#263238" fill-rule="nonzero"></path>
                <path d="M165.7,161 C165.9,161 165.9,156.747619 165.8,151.5 C165.7,146.252381 165.5,142 165.3,142 C165.1,142 165.1,146.252381 165.2,151.5 C165.3,156.838095 165.6,161 165.7,161 Z" id="Path" fill="#263238" fill-rule="nonzero"></path>
                <g id="Group" transform="translate(166.000000, 132.000000)" fill-rule="nonzero">
                    <g transform="translate(0.000000, 39.942437)" id="Path">
                        <path d="M16.4106667,5.44669589 L18.4053333,21.242114 L42.432,0.726226119 L55.5786667,3.90346539 C55.5786667,3.90346539 42.0693333,32.4078405 31.3706667,43.6643454 C20.672,54.9208502 14.8693333,56.554859 10.88,56.7364155 C5.34933333,57.0087503 2.81066667,50.2003804 2.81066667,50.2003804 L0.362666667,10.98417 L16.4106667,5.44669589 Z" fill="#FFBE9D"></path>
                        <path d="M18.3146667,20.7882226 C18.224,20.6974444 17.2266667,22.4222314 16.592,24.691688 C15.9573333,26.9611447 15.8666667,28.9582665 16.048,28.9582665 C16.2293333,28.9582665 16.5013333,27.1427012 17.136,24.8732446 C17.7706667,22.6037879 18.4053333,20.8790009 18.3146667,20.7882226 Z" fill="#EB996E"></path>
                    </g>
                    <g transform="translate(19.946667, 0.000000)" id="Path">
                        <path d="M24.752,0.726226119 L42.7946667,0.726226119 C45.5146667,0.726226119 47.9626667,3.90346539 46.9653333,6.53603507 L28.832,41.9395583 C28.1066667,43.3012323 26.7466667,44.209015 25.2053333,44.209015 L3.17333333,44.1182367 C0.634666667,43.7551236 -0.272,40.9409974 0.816,39.4885452 L18.3146667,4.81124804 C19.4933333,2.26945662 22.032,0.726226119 24.752,0.726226119 Z" fill="#455A64"></path>
                        <path d="M26.0213333,2.90490447 L44.064,2.90490447 C46.3306667,2.90490447 47.7813333,5.26513936 46.784,7.35303945 L29.0133333,41.9395583 C28.288,43.3012323 26.928,44.209015 25.3866667,44.209015 L3.62666667,44.209015 C2.26666667,44.209015 1.45066667,42.847341 1.99466667,41.6672236 L19.4933333,6.98992639 C20.7626667,4.44813498 23.2106667,2.90490447 26.0213333,2.90490447 Z" fill="#263238"></path>
                    </g>
                    <g transform="translate(35.360000, 17.247870)" id="Path">
                        <path d="M12.0586667,0.0907782648 L23.0293333,4.44813498 L25.3866667,13.3444049 L20.128,26.5072533 L0.725333333,29.3213795 L6.43733333,23.5115706 L5.712,18.4279878 C5.712,18.4279878 0.272,16.7032007 0.181333333,15.8861963 C0.0906666667,15.069192 0.816,12.2550658 1.72266667,12.1642875 C2.53866667,12.0735092 8.25066667,14.1614093 8.25066667,14.1614093 C8.25066667,14.1614093 1.54133333,8.80549169 1.72266667,7.9884873 C1.904,7.17148292 2.62933333,4.9020263 3.98933333,4.72046977 C5.34933333,4.44813498 16.2293333,9.62249607 16.2293333,9.62249607 L17.952,13.6167397 L19.4933333,7.17148292 C19.4026667,7.26226119 9.70133333,4.53891324 12.0586667,0.0907782648 Z" fill="#FFBE9D"></path>
                        <path d="M10.6986667,20.9697792 C10.7893333,20.9697792 10.9706667,20.6066661 11.0613333,19.88044 C11.152,19.1542139 11.152,18.155653 10.6986667,17.0663138 C10.336,16.0677529 9.70133333,15.2507485 9.15733333,14.7060789 C8.61333333,14.2521876 8.16,14.070631 8.16,14.070631 C8.06933333,14.1614093 9.52,15.2507485 10.1546667,17.1570921 C10.9706667,19.1542139 10.5173333,20.8790009 10.6986667,20.9697792 Z" fill="#EB996E"></path>
                        <path d="M15.9573333,18.9726573 C16.048,18.9726573 15.5946667,17.8833182 15.504,16.0677529 C15.4133333,15.1599702 15.3226667,14.070631 14.96,12.8905136 C14.7786667,12.345844 14.416,11.7103962 13.9626667,11.1657266 C13.5093333,10.621057 12.784,10.2579439 12.1493333,10.0763874 C9.52,9.07782648 7.16266667,8.35160036 5.44,7.80693077 C3.71733333,7.26226119 2.62933333,6.98992639 2.62933333,6.98992639 C2.62933333,7.08070466 3.62666667,7.53459598 5.34933333,8.17004383 C7.072,8.80549169 9.42933333,9.71327434 11.968,10.621057 C12.6026667,10.8933918 13.1466667,11.1657266 13.6,11.6196179 C14.0533333,12.0735092 14.3253333,12.6181788 14.5066667,13.1628484 C14.96,14.2521876 15.0506667,15.3415268 15.1413333,16.2493094 C15.3226667,17.9740964 15.8666667,19.0634356 15.9573333,18.9726573 Z" fill="#EB996E"></path>
                        <path d="M18.496,16.9755355 C18.6773333,16.9755355 18.5866667,15.9769746 18.4053333,14.7968572 C18.224,13.6167397 17.952,12.7089571 17.7706667,12.7089571 C17.5893333,12.7089571 17.68,13.707518 17.8613333,14.8876354 C18.0426667,16.1585311 18.3146667,17.0663138 18.496,16.9755355 Z" fill="#EB996E"></path>
                    </g>
                    <path d="M54.128,9.53171781 C54.128,10.8026135 53.1306667,11.8011744 51.8613333,11.8011744 C50.592,11.8011744 49.5946667,10.8026135 49.5946667,9.53171781 C49.5946667,8.2608221 50.592,7.26226119 51.8613333,7.26226119 C53.1306667,7.26226119 54.128,8.2608221 54.128,9.53171781 Z" id="Path" fill="#FAFAFA"></path>
                </g>
                <path d="M176,178 C176,178 175.72449,178.18 175.357143,178.54 C174.897959,178.99 174.255102,179.53 173.520408,180.16 C171.867347,181.6 169.663265,183.58 167.091837,186.01 L167,186.1 L167,186.19 C167.27551,189.79 167.642857,194.11 168.010204,198.7 C168.469388,205.45 168.928571,211.48 169.112245,215.89 C169.204082,218.05 169.295918,219.76 169.387755,221.11 C169.479592,222.37 169.479592,223 169.479592,223 C169.479592,223 169.571429,222.28 169.571429,221.11 C169.571429,219.85 169.571429,218.05 169.479592,215.89 C169.387755,211.48 169.020408,205.36 168.561224,198.7 C168.193878,194.11 167.826531,189.79 167.459184,186.19 L167.367347,186.37 C169.938776,183.94 172.05102,181.87 173.612245,180.43 C174.346939,179.71 174.897959,179.17 175.357143,178.72 C175.816327,178.27 176,178.09 176,178 Z" id="Path" fill="#EB996E" fill-rule="nonzero"></path>
                <path d="M131.894503,56.8155374 C131.894503,56.8155374 142.1547,55.7053148 146.961279,59.1285013 C141.415227,54.9651663 138.180029,54.0399808 138.180029,54.0399808 C138.180029,54.0399808 152.137595,54.9651663 154.633319,57.740723 C156.2047,59.4985755 156.759306,53.8549437 154.44845,48.6739047 C153.801411,47.2861263 152.969503,45.898348 151.860292,44.6956068 C150.843516,43.5853842 149.549437,42.6601986 147.978056,42.1050873 C139.104371,38.6819008 127.827398,41.9200502 122.188911,40.2547162 C116.45799,38.5893823 98.5257533,44.8806439 100.097135,65.3272444 C101.668516,85.7738448 100.836609,101.594518 112.575753,104 C113.037924,99.5591094 112.298451,92.805255 112.298451,92.805255 C112.298451,92.805255 104.81128,91.2324395 105.365885,85.7738448 C106.012924,80.3152502 110.634635,78.0022863 118.029372,79.8526574 C114.609306,72.1736174 114.239569,59.2210198 118.399108,58.2033157 C122.558648,57.1856116 131.894503,56.8155374 131.894503,56.8155374 Z" id="Path" fill="#1A1A1A" fill-rule="nonzero"></path>
                <path d="M72.8325243,52.0565046 C73.5509709,52.7713535 74,53.7542707 74,54.826544 L74,67.3363995 C74,69.39159 72.3834951,71 70.3179612,71 L70.3179612,71 L40.6820388,71 C38.6165049,71 37,69.39159 37,67.3363995 L37,67.3363995 L37,53.8436268 C37,53.4862024 37.1796117,53.0394218 37.4490291,52.7713535 L53.1650485,37.9382392 C54.4223301,36.6872536 56.4878641,36.6872536 57.8349515,37.9382392" id="Path" fill="#0049E2" fill-rule="nonzero"></path>
                <path d="M37,55 L74,55 L74,55 L74,70.6315789 C74,71.9578947 73.002451,73 71.7328431,73 L71.7328431,73 L39.2671569,73 C37.997549,73 37,71.9578947 37,70.6315789 L37,70.6315789 L37,55 L37,55 L37,55 Z" id="Path" fill="#000000" fill-rule="nonzero" opacity="0.1"></path>
                <path d="M43.9668874,43 L67.0331126,43 C68.1059603,43 69,43.8940397 69,44.9668874 L69,68.0331126 C69,69.1059603 68.1059603,70 67.0331126,70 L43.9668874,70 C42.8940397,70 42,69.1059603 42,68.0331126 L42,45.0562914 C42,43.8940397 42.8940397,43 43.9668874,43 Z" id="Path" fill="#F8FAFF" fill-rule="nonzero"></path>
                <polygon id="Path" fill="#000000" fill-rule="nonzero" opacity="0.1" points="69 55 69 71 42 71 42 55 55.4554455 61.994012"></polygon>
                <path d="M55.5,62.8042233 L38.0776699,54.0728798 C37.7184466,53.8871065 37.2694175,54.0728798 37.0898058,54.4444263 C37,54.5373129 37,54.6301996 37,54.7230862 L37,69.6778342 C37,70.978247 37.9878641,72 39.2451456,72 L39.2451456,72 L71.7548544,72 C73.0121359,72 74,70.978247 74,69.6778342 L74,69.6778342 L74,55.0017461 C74,54.5373129 73.6407767,54.0728798 73.1019417,54.0728798 C73.0121359,54.0728798 72.8325243,54.0728798 72.7427184,54.1657664 L55.5,62.8042233 Z" id="Path" fill="#91A8F6" fill-rule="nonzero"></path>
                <rect id="Rectangle" fill="#0049E2" fill-rule="nonzero" x="44" y="45" width="8" height="1"></rect>
                <rect id="Rectangle" fill="#0049E2" fill-rule="nonzero" x="43" y="49" width="23" height="1"></rect>
                <rect id="Rectangle" fill="#0049E2" fill-rule="nonzero" x="43" y="51" width="23" height="1"></rect>
                <rect id="Rectangle" fill="#0049E2" fill-rule="nonzero" x="43" y="53" width="23" height="1"></rect>
                <circle id="Oval" fill="#FFFFFF" fill-rule="nonzero" cx="43" cy="43" r="3"></circle>
                <path d="M43,39 C40.8095238,39 39,40.8095238 39,43 C39,45.1904762 40.8095238,47 43,47 C45.1904762,47 47,45.1904762 47,43 C47,40.8095238 45.1904762,39 43,39 Z M42.2380952,45.0952381 L40.1428571,43 L40.7142857,42.4285714 L42.1428571,43.8571429 L45.2857143,40.7142857 L45.8571429,41.2857143 L42.2380952,45.0952381 L42.2380952,45.0952381 Z" id="Shape" fill="#0049E2" fill-rule="nonzero"></path>
                <g id="Group" transform="translate(184.000000, 86.000000)" stroke="#445EEA" stroke-width="2">
                    <path d="M15.575,59.3636364 C15.575,59.3636364 15.1375,58.9090909 14.4375,58" id="Path"></path>
                    <path d="M12.1625,55.1818182 C4.1125,44.5454545 -13.0375,16.4545455 17.5875,2.27272727" id="Path" stroke-dasharray="4.0307,4.0307"></path>
                    <path d="M19.1625,1.54545455 C19.6875,1.36363636 20.2125,1.09090909 20.825,0.909090909" id="Path"></path>
                </g>
                <path d="M200,20.137931 C199.480519,20.6551724 198.701299,21 197.922078,21 C197.142857,21 196.450216,20.7413793 195.844156,20.137931 C194.718615,19.0172414 194.718615,17.0344828 195.844156,16 L200,20.137931 Z" id="Path" fill="#445EEA" fill-rule="nonzero"></path>
                <path d="M209.8625,5.6 C209.6875,4.9 209.8625,4.1125 210.3875,3.5875 L210.3875,3.5875 C210.825,3.15 211,2.625 211,2.1 C211,0.9625 210.0375,0 208.9,0 C208.375,0 207.85,0.175 207.4125,0.6125 L207.4125,0.6125 C206.8875,1.1375 206.1,1.3125 205.4,1.1375 C200.2375,-0.2625 195.775,7.9625 191.225,5.6875 L190,6.9125 L204.0875,21 L205.3125,19.775 C202.95,15.225 211.175,10.7625 209.8625,5.6 Z" id="Path" fill="#91A8F6" fill-rule="nonzero"></path>
                <path d="M196.410256,10 L195,8.73681317 C198.008547,7.7262637 202.42735,3.26300356 206,4.10512811 C203.08547,4.35776548 199.512821,8.56838826 196.410256,10 Z" id="Path" fill="#FFFFFF" fill-rule="nonzero"></path>
                <path d="M209.272727,2.72727273 C208.909091,2.36363636 208.909091,1.63636364 209.272727,1.27272727 C209.636364,0.909090909 210.363636,0.909090909 210.727273,1.27272727 C211.090909,1.63636364 211.090909,2.36363636 210.727273,2.72727273 C210.363636,3.09090909 209.636364,3.09090909 209.272727,2.72727273 Z" id="Path" fill="#F8FAFF" fill-rule="nonzero"></path>
                <path d="M35.2582781,199 L33.2019868,199 C30.8774834,199 29,197.014925 29,194.557214 L29,184.442786 C29,181.985075 30.8774834,180 33.2019868,180 L51.7980132,180 C54.1225166,180 56,181.985075 56,184.442786 L56,194.557214 C56,197.014925 54.1225166,199 51.7980132,199 L39.6390728,199" id="Path" fill="#91A8F6" fill-rule="nonzero"></path>
                <g id="Group" transform="translate(35.000000, 185.000000)" fill="#FFFFFF" fill-rule="nonzero">
                    <path d="M1.41176471,1.17 L15.3411765,1.17 C15.6235294,1.17 15.9058824,0.9 15.9058824,0.63 C15.9058824,0.36 15.6235294,0.09 15.3411765,0.09 L1.41176471,0.09 C1.12941176,0.09 0.847058824,0.36 0.847058824,0.63 C0.847058824,0.9 1.12941176,1.17 1.41176471,1.17 Z" id="Path"></path>
                    <path d="M1.41176471,4.68 L15.3411765,4.68 C15.6235294,4.68 15.9058824,4.41 15.9058824,4.14 C15.9058824,3.87 15.6235294,3.6 15.3411765,3.6 L1.41176471,3.6 C1.12941176,3.6 0.847058824,3.87 0.847058824,4.14 C0.847058824,4.5 1.12941176,4.68 1.41176471,4.68 Z" id="Path"></path>
                    <path d="M13.2705882,8.28 L15.3411765,8.28 C15.6235294,8.28 15.9058824,8.01 15.9058824,7.74 C15.9058824,7.47 15.6235294,7.2 15.3411765,7.2 L13.2705882,7.2 C12.9882353,7.2 12.7058824,7.47 12.7058824,7.74 C12.7058824,8.01 12.9882353,8.28 13.2705882,8.28 Z" id="Path"></path>
                    <path d="M8.65882353,8.28 L10.7294118,8.28 C11.0117647,8.28 11.2941176,8.01 11.2941176,7.74 C11.2941176,7.47 11.0117647,7.2 10.7294118,7.2 L8.65882353,7.2 C8.37647059,7.2 8.09411765,7.47 8.09411765,7.74 C8.09411765,8.01 8.37647059,8.28 8.65882353,8.28 Z" id="Path"></path>
                    <path d="M1.41176471,8.28 L6.02352941,8.28 C6.30588235,8.28 6.58823529,8.01 6.58823529,7.74 C6.58823529,7.47 6.30588235,7.2 6.02352941,7.2 L1.41176471,7.2 C1.12941176,7.2 0.847058824,7.47 0.847058824,7.74 C0.847058824,8.01 1.12941176,8.28 1.41176471,8.28 Z" id="Path"></path>
                </g>
            </g>
        </g>
    </g>
</svg>