<?xml version="1.0" encoding="UTF-8"?>
<svg width="160px" height="103px" viewBox="0 0 160 103" version="1.1" xmlns="http://www.w3.org/2000/svg" xmlns:xlink="http://www.w3.org/1999/xlink">
    <!-- Generator: sketchtool 62 (101010) - https://sketch.com -->
    <title>77CD6F8D-4F05-4C7B-BEA2-954E02E97658@1x</title>
    <desc>Created with sketchtool.</desc>
    <g id="Page-1" stroke="none" stroke-width="1" fill="none" fill-rule="evenodd">
        <g id="splash-screen" transform="translate(-100.000000, -265.000000)">
            <g id="Group" transform="translate(100.000000, 262.000000)">
                <g id="Group-2" transform="translate(43.000000, 0.000000)">
                    <path d="M55.1655712,1.17890905 C59.9791181,1.17445182 63.8848821,5.07298926 63.8893394,9.88653615 C63.8893443,9.89191201 63.8893443,9.89728787 63.8893394,9.90266373 L63.8505024,51.9145052 C63.8460419,56.7395788 59.9356637,60.6499628 55.1105901,60.6544303 C50.2970428,60.6588872 46.3912788,56.7603492 46.3868219,51.9468019 C46.3868169,51.9414262 46.3868169,51.9360505 46.3868219,51.9306749 L46.4256591,9.91883467 C46.4301195,5.09376109 50.3404976,1.18337695 55.1655712,1.17890905 Z" id="Rectangle" fill="#F7F7F7" transform="translate(55.138081, 30.916669) rotate(-24.000000) translate(-55.138081, -30.916669) "></path>
                    <path d="M35.3988512,13.4810002 C40.2123982,13.4765429 44.1181623,17.3750804 44.1226195,22.1886274 C44.1226245,22.1940032 44.1226245,22.1993791 44.1226195,22.204755 L44.0945629,52.5547306 C44.0901024,57.3798042 40.1797242,61.2901883 35.3546506,61.294656 C30.5411035,61.299113 26.6353394,57.4005752 26.6308824,52.587028 C26.6308774,52.5816523 26.6308774,52.5762765 26.6308824,52.5709008 L26.6589389,22.2209259 C26.6633994,17.3958523 30.5737776,13.4854681 35.3988512,13.4810002 Z" id="Rectangle-Copy-2" fill="#FFFFFF" transform="translate(35.376751, 37.387828) rotate(-24.000000) translate(-35.376751, -37.387828) "></path>
                    <path d="M14.9174152,27.3770163 C19.730962,27.3725591 23.6367261,31.2710965 23.6411833,36.0846434 C23.6411883,36.0900192 23.6411883,36.0953951 23.6411833,36.1007709 L23.6271417,51.290318 C23.6226812,56.1153917 19.7123032,60.025776 14.8872295,60.0302441 C10.0736829,60.0347016 6.16791882,56.1361646 6.16346134,51.322618 C6.16345636,51.3172419 6.16345635,51.3118659 6.16346132,51.3064899 L6.17750306,36.1169419 C6.18196353,31.2918683 10.0923416,27.3814842 14.9174152,27.3770163 Z" id="Rectangle-Copy-3" fill="#F7F7F7" transform="translate(14.902322, 43.703630) rotate(-24.000000) translate(-14.902322, -43.703630) "></path>
                </g>
                <text id="CheckIn-Hero" font-family="SFProDisplay-Bold, SF Pro Display" font-size="26" font-weight="bold" line-spacing="40" fill="#FFFFFF">
                    <tspan x="0.189453125" y="101">CheckIn Hero</tspan>
                </text>
            </g>
        </g>
    </g>
</svg>